HIERARCHY
ROOT Hips
{
  OFFSET 0.0000 0.0000 0.0000
  CHANNELS 6 Xposition Yposition Zposition Zrotation Xrotation Yrotation
  JOINT LeftHip
  {
    OFFSET 3.4300 0.0000 0.0000
    CHANNELS 3 Zrotation Xrotation Yrotation
    JOINT LeftKnee
    {
      OFFSET -0.0000 -18.4700 0.0000
      CHANNELS 3 Zrotation Xrotation Yrotation
      JOINT LeftAnkle
      {
        OFFSET 0.0000 -17.9500 0.0000
        CHANNELS 3 Zrotation Xrotation Yrotation
        End Site
        {
            OFFSET 0.0000 -3.1200 0.0000
        }
      }
    }
  }
  JOINT RightHip
  {
    OFFSET -3.4300 0.0000 0.0000
    CHANNELS 3 Zrotation Xrotation Yrotation
    JOINT RightKnee
    {
      OFFSET 0.0000 -18.4700 0.0000
      CHANNELS 3 Zrotation Xrotation Yrotation
      JOINT RightAnkle
      {
        OFFSET 0.0000 -17.9500 0.0000
        CHANNELS 3 Zrotation Xrotation Yrotation
        End Site
        {
            OFFSET 0.0000 -3.1200 -0.0000
        }
      }
    }
  }
  JOINT Chest
  {
    OFFSET -0.0000 4.5700 0.0000
    CHANNELS 3 Zrotation Xrotation Yrotation
    JOINT Chest2
    {
      OFFSET 0.0000 6.5700 0.0000
      CHANNELS 3 Zrotation Xrotation Yrotation
      JOINT LeftCollar
      {
        OFFSET 1.0600 4.1900 1.7600
        CHANNELS 3 Zrotation Xrotation Yrotation
        JOINT LeftShoulder
        {
          OFFSET 5.8100 0.0000 0.0000
          CHANNELS 3 Zrotation Xrotation Yrotation
          JOINT LeftElbow
          {
            OFFSET 0.0000 -12.0800 -0.0000
            CHANNELS 3 Zrotation Xrotation Yrotation
            JOINT LeftWrist
            {
              OFFSET 0.0000 -9.8200 0.0000
              CHANNELS 3 Zrotation Xrotation Yrotation
              End Site
              {
                  OFFSET -0.0000 -7.3700 0.0000
              }
            }
          }
        }
      }
      JOINT RightCollar
      {
        OFFSET -1.0600 4.1900 1.7600
        CHANNELS 3 Zrotation Xrotation Yrotation
        JOINT RightShoulder
        {
          OFFSET -6.0600 0.0000 0.0000
          CHANNELS 3 Zrotation Xrotation Yrotation
          JOINT RightElbow
          {
            OFFSET 0.0000 -11.0800 0.0000
            CHANNELS 3 Zrotation Xrotation Yrotation
            JOINT RightWrist
            {
              OFFSET 0.0000 -9.8200 0.0000
              CHANNELS 3 Zrotation Xrotation Yrotation
              End Site
              {
                  OFFSET 0.0000 -7.1400 0.0000
              }
            }
          }
        }
      }
    }
    JOINT Neck
    {
      OFFSET 0.0000 10.6200 0.0000
      CHANNELS 3 Zrotation Xrotation Yrotation
      JOINT Head
      {
        OFFSET -0.0000 5.1900 0.0000
        CHANNELS 3 Zrotation Xrotation Yrotation
        End Site
        {
            OFFSET 0.0000 4.1400 0.0000
        }
      }
    }
  }
}
MOTION
Frames:	32
Frame Time:	0.033333
41.5244 43.2888 6.8431 -66.75 3.62 38.83 64.87 -52.44 38.68 -2.92 15.40 15.57 6.72 -1.31 0.13 -35.75 -25.89 -16.41 -0.53 84.99 6.47 21.23 -14.67 0.91 20.60 17.36 -15.97 0.00 0.00 0.00 1.52 -0.12 5.17 106.90 -9.87 15.20 22.78 -49.80 20.82 25.60 -24.99 6.14 4.01 0.54 0.98 -25.74 -57.20 25.27 24.42 -70.90 27.23 -36.86 -7.55 -3.09 5.65 10.11 -13.72 33.60 -18.59 -13.91 
41.4566 43.4125 6.6724 -64.45 5.17 37.50 60.62 -50.30 35.52 -3.09 12.16 17.81 7.13 0.13 -0.10 -35.38 -36.42 -22.97 -178.59 85.55 -174.66 19.30 -11.23 0.50 20.34 17.74 -16.10 0.00 0.00 0.00 0.75 -0.03 3.90 105.28 -12.93 16.24 22.49 -52.96 18.87 25.94 -24.90 6.20 3.89 0.47 0.44 -26.48 -54.48 24.18 24.73 -71.30 28.21 -37.02 -8.04 -3.27 7.45 10.78 -14.25 32.20 -19.76 -13.31 
41.4517 43.4721 6.5095 -61.81 6.34 36.51 56.38 -48.43 32.66 -3.57 9.70 19.58 7.75 1.04 -0.31 -35.46 -45.20 -31.43 179.14 80.50 -169.33 18.99 -9.24 0.48 20.20 18.03 -16.60 0.00 0.00 0.00 -0.05 0.06 2.83 103.09 -16.11 17.70 22.53 -54.25 16.88 24.81 -25.98 6.17 3.14 0.32 -0.61 -26.30 -51.57 24.21 26.20 -72.47 30.81 -37.36 -8.28 -3.38 5.33 10.54 -13.97 33.17 -19.68 -13.94 
41.4384 43.4538 6.5212 -58.83 7.16 35.65 52.77 -46.52 30.84 -4.62 8.50 20.56 8.23 1.11 -0.43 -33.04 -52.14 -37.94 176.04 80.97 -164.92 17.50 -6.89 0.59 20.33 18.45 -17.44 0.00 0.00 0.00 -0.69 0.11 2.27 100.68 -18.47 17.98 17.53 -58.98 10.94 27.12 -25.09 6.54 2.97 0.28 -0.99 -26.50 -49.15 23.91 30.56 -74.47 36.64 -37.54 -6.54 -2.81 -1.41 11.35 -12.29 37.90 -20.02 -15.03 
41.5339 43.4553 6.5408 -55.29 7.25 34.59 48.04 -44.25 28.19 -4.66 7.69 21.14 8.21 1.02 -0.49 -26.94 -57.41 -38.27 169.27 85.11 -159.47 18.70 -5.08 0.88 20.01 19.68 -17.82 0.00 0.00 0.00 -0.98 0.13 2.10 98.19 -20.68 19.20 9.28 -64.53 1.90 28.99 -23.49 6.58 2.29 0.18 -1.76 -27.51 -46.05 20.90 34.45 -76.03 40.92 -36.68 -6.63 -2.77 -4.32 12.44 -11.75 39.64 -21.02 -15.44 
41.7490 43.5215 6.5940 -52.05 7.05 33.56 42.72 -41.40 25.22 -3.52 5.58 21.33 7.90 1.61 -0.58 -15.63 -59.90 -29.77 33.77 84.23 -26.50 21.20 2.12 -0.01 20.16 20.65 -17.78 0.00 0.00 0.00 -0.88 0.12 2.19 94.60 -24.72 19.59 4.44 -65.34 -4.04 29.73 -24.05 6.91 2.16 0.15 -2.01 -28.67 -43.61 19.59 38.75 -77.14 46.03 -37.34 -5.65 -2.49 -7.81 13.65 -11.18 41.74 -22.03 -16.11 
41.9730 43.6391 6.7205 -49.20 7.24 32.65 38.35 -38.95 23.45 -2.60 3.83 21.37 7.55 1.93 -0.64 -2.56 -57.32 -13.59 21.83 66.24 -19.08 22.22 11.72 -1.80 20.49 20.82 -17.53 0.00 0.00 0.00 -0.47 0.07 2.68 89.74 -28.73 20.34 -0.52 -66.24 -10.86 29.43 -24.56 6.97 1.45 0.10 -2.51 -27.62 -42.00 19.85 42.54 -77.97 50.96 -37.67 -3.79 -1.88 -9.97 15.34 -10.91 42.83 -23.32 -16.47 
42.0572 43.6659 6.9321 -46.39 7.92 31.85 35.36 -37.26 23.54 -2.78 3.55 21.01 7.37 1.54 -0.71 6.08 -52.70 -0.11 17.67 48.75 -21.82 22.50 13.56 -2.35 20.51 20.53 -17.09 0.00 0.00 0.00 0.30 0.00 3.47 84.17 -30.38 22.12 -19.81 -71.28 -31.38 29.56 -22.36 6.41 -0.33 0.00 -3.50 -26.15 -40.50 19.53 40.80 -78.24 50.12 -37.02 -3.36 -1.70 -7.28 12.53 -13.27 38.38 -20.91 -18.27 
42.2460 43.6014 7.1692 -43.23 8.01 31.70 31.60 -35.70 22.64 -2.85 3.88 20.44 7.19 0.79 -0.67 6.90 -49.78 4.40 20.34 38.09 -28.35 21.79 10.62 -1.35 20.75 20.02 -16.86 0.00 0.00 0.00 -0.24 0.04 3.01 79.23 -34.11 17.79 -19.82 -71.30 -32.41 30.18 -22.54 6.60 -2.01 -0.05 -4.28 -24.06 -38.87 18.96 35.71 -77.27 47.07 -36.82 -3.27 -1.66 -6.71 8.41 -15.78 34.77 -16.82 -21.32 
42.5370 43.6071 7.4897 -39.52 7.89 31.49 27.03 -33.32 21.55 -2.50 3.72 19.62 6.85 0.13 -0.64 6.14 -46.11 7.82 23.10 27.24 -34.95 18.27 12.73 -0.83 20.06 19.27 -16.21 0.00 0.00 0.00 -0.05 0.03 3.16 73.89 -38.25 13.44 -21.17 -70.93 -34.63 30.00 -22.33 6.50 -2.87 -0.06 -4.55 -23.56 -36.90 17.28 33.78 -76.68 46.62 -36.90 -2.58 -1.44 -2.77 8.54 -18.46 29.70 -16.45 -22.29 
42.7743 43.5831 7.9061 -35.44 8.33 30.91 22.78 -30.86 21.79 -2.68 3.81 18.52 6.57 -0.71 -0.63 9.75 -38.21 12.24 11.99 14.01 -35.62 17.67 20.44 -2.34 18.51 18.25 -15.30 0.00 0.00 0.00 -2.18 0.20 1.54 70.34 -37.69 12.29 -40.24 -74.07 -54.78 27.72 -19.67 5.31 -4.10 -0.06 -4.83 -21.18 -34.45 15.52 32.88 -76.88 48.87 -35.81 -1.47 -1.03 -2.11 8.08 -20.32 27.00 -14.89 -24.02 
43.1381 43.4466 8.3515 -31.21 8.50 30.61 18.17 -28.17 20.86 -2.65 3.85 18.08 6.25 -1.62 -0.53 9.32 -32.54 9.74 4.89 7.60 -35.29 19.78 22.10 -3.43 16.78 16.63 -14.56 0.00 0.00 0.00 -4.93 0.49 -0.32 66.72 -38.16 5.04 -39.75 -75.49 -55.10 27.10 -19.14 5.06 -3.41 -0.05 -4.47 -20.54 -32.79 12.70 29.60 -75.28 48.18 -34.99 -0.99 -0.86 -6.93 12.70 -19.72 30.27 -16.21 -25.63 
43.5214 43.5136 8.8317 -27.25 8.06 29.85 14.75 -24.83 20.50 -2.97 4.05 17.99 5.92 -2.61 -0.51 7.76 -29.87 7.97 7.99 6.60 -34.24 17.11 19.79 -2.36 14.85 15.89 -13.40 0.00 0.00 0.00 -3.89 0.36 0.50 60.02 -40.58 1.11 -45.21 -74.93 -61.45 25.05 -18.67 4.56 -0.48 -0.00 -3.54 -26.68 -31.91 7.93 31.36 -75.10 47.31 -34.81 -0.37 -0.66 -4.10 18.01 -20.81 27.97 -20.24 -24.99 
43.8711 43.2242 9.4142 -22.62 7.26 28.71 11.58 -21.05 20.21 -3.59 5.21 18.46 5.37 -3.86 -0.51 6.78 -25.75 6.08 8.05 6.30 -29.91 8.59 17.83 -0.77 12.93 16.07 -12.70 0.00 0.00 0.00 -4.93 0.44 0.09 57.64 -39.53 1.90 -65.41 -74.35 -80.89 22.59 -16.96 3.75 0.46 0.02 -3.26 -29.01 -32.02 5.21 32.19 -75.30 47.62 -33.69 0.68 -0.32 -2.69 16.85 -22.39 24.27 -18.86 -26.04 
44.4615 42.9623 9.8328 -18.33 6.13 27.48 7.97 -17.88 17.31 -3.07 7.05 21.15 4.32 -5.01 -0.38 2.79 -22.13 2.25 9.00 6.38 -26.83 1.70 14.12 0.33 11.13 15.82 -11.72 0.00 0.00 0.00 -6.22 0.55 -0.44 54.56 -39.04 -2.17 -74.62 -74.98 -88.94 21.47 -15.51 3.28 4.35 0.18 -2.02 -34.20 -32.44 3.27 29.03 -74.19 44.81 -32.97 1.46 -0.08 0.53 14.39 -24.56 18.30 -17.16 -26.68 
44.7941 42.5737 10.4065 -13.81 5.46 25.44 6.35 -16.30 15.73 -4.28 12.75 23.45 2.45 -7.64 -0.24 1.74 -18.14 1.42 5.10 7.06 -25.17 -0.39 11.89 0.60 8.85 15.62 -10.78 0.00 0.00 0.00 -6.12 0.46 0.18 50.72 -37.04 -6.41 -83.36 -75.24 -96.98 21.45 -15.46 3.27 4.26 0.19 -1.93 -33.59 -33.66 3.91 25.83 -73.13 42.62 -32.44 1.51 -0.06 0.53 12.68 -25.33 15.15 -15.11 -27.37 
45.1252 42.5375 10.9707 -9.91 3.89 22.63 6.42 -15.00 14.99 -6.51 20.21 23.99 1.03 -11.00 -0.21 -0.52 -14.31 0.23 3.37 7.84 -21.76 0.62 8.83 0.34 7.24 15.94 -9.63 0.00 0.00 0.00 -6.29 0.38 0.80 47.83 -33.56 -8.42 -94.07 -74.90 -107.28 20.83 -15.70 3.21 4.08 0.21 -1.79 -33.25 -35.72 4.19 23.93 -72.54 41.13 -31.36 2.29 0.16 -0.69 13.66 -25.20 14.10 -14.70 -27.74 
45.5979 42.5819 11.3090 -6.87 1.72 19.28 4.82 -13.05 12.41 -5.19 25.15 23.70 -0.42 -11.99 -0.17 -3.38 -11.85 -0.48 5.51 9.94 -18.49 -0.07 5.25 0.49 5.93 16.36 -7.53 0.00 0.00 0.00 -4.97 0.24 1.66 42.26 -31.97 -10.72 -98.35 -74.04 -111.51 20.34 -15.41 3.08 7.61 0.54 0.06 -38.15 -37.61 3.17 19.16 -69.99 35.67 -30.65 2.19 0.13 -0.56 16.79 -25.12 13.34 -16.87 -27.59 
45.7112 42.5491 11.7932 -4.75 -0.37 15.17 4.01 -9.27 9.16 -2.73 27.58 21.12 -1.55 -11.20 -0.14 -4.18 -10.05 0.30 6.18 12.34 -15.56 -1.10 2.52 0.49 4.93 17.26 -5.16 0.00 0.00 0.00 -1.15 0.04 3.08 34.91 -29.85 -13.79 -104.04 -73.44 -117.41 20.52 -15.28 3.09 9.22 0.83 1.51 -40.27 -40.22 3.55 16.51 -67.74 32.33 -30.70 2.31 0.16 -0.31 17.24 -25.13 12.20 -17.26 -27.42 
45.8902 42.5021 12.0765 -3.60 -2.09 11.41 4.36 -5.71 4.57 -3.13 29.19 16.45 -0.16 -11.09 -0.08 -5.04 -9.82 1.72 7.13 15.76 -13.82 -1.63 0.27 0.45 4.86 17.86 -4.04 0.00 0.00 0.00 -1.07 0.03 3.23 31.89 -25.70 -15.74 -112.29 -73.78 -127.28 20.04 -15.43 3.04 11.11 1.28 3.49 -41.70 -43.07 3.83 12.87 -65.33 29.13 -30.05 2.21 0.13 0.22 17.20 -25.01 10.95 -17.89 -26.95 
46.1448 42.2599 12.2283 -2.92 -3.36 7.31 4.28 -2.70 -1.40 -3.48 31.01 11.55 0.31 -12.57 -0.07 -5.83 -11.01 3.54 8.05 20.21 -12.06 -1.74 -1.89 0.40 4.71 18.04 -2.70 0.00 0.00 0.00 -0.32 0.01 3.42 29.00 -21.91 -15.53 -117.17 -73.12 -133.28 19.93 -15.50 3.04 12.73 1.78 5.46 -43.03 -45.22 4.39 9.90 -62.33 26.12 -29.64 1.14 -0.16 0.01 18.48 -24.49 10.92 -19.61 -26.49 
46.2419 42.0288 12.4049 -2.30 -4.50 3.48 3.13 -0.64 -8.57 -2.70 33.08 7.10 0.06 -15.16 -0.07 -5.47 -11.82 4.82 7.62 23.94 -9.62 -2.45 -3.58 0.30 4.21 18.62 -1.91 0.00 0.00 0.00 2.64 -0.01 3.59 26.33 -17.23 -13.36 -125.48 -70.72 -141.21 19.94 -15.49 3.04 11.48 1.66 5.37 -38.81 -48.15 7.94 8.98 -61.01 25.48 -29.27 0.92 -0.21 0.72 16.08 -24.47 9.48 -18.23 -26.00 
46.2900 41.9334 12.4982 -1.83 -5.31 0.12 1.70 0.05 -14.93 -5.36 34.21 5.55 3.69 -16.87 0.29 -4.64 -11.28 6.89 6.08 24.03 -8.89 -4.40 -3.34 0.25 4.02 18.72 -1.31 0.00 0.00 0.00 1.50 0.00 3.50 25.53 -14.88 -13.42 -128.38 -70.42 -144.63 19.37 -15.77 3.00 11.25 1.69 5.64 -35.73 -49.93 10.08 5.66 -60.23 23.41 -27.47 0.13 -0.39 1.32 15.52 -24.22 8.59 -18.35 -25.40 
46.3618 41.6210 12.5083 -1.91 -5.40 -2.10 1.07 5.06 -18.88 -2.81 26.17 5.50 3.20 -12.90 0.07 -4.32 -12.16 8.02 4.83 25.28 -8.25 -4.42 -4.15 0.11 4.14 18.22 -1.30 0.00 0.00 0.00 5.89 -0.00 3.54 19.07 -15.17 -13.31 -124.66 -70.28 -141.14 19.05 -15.63 2.92 10.11 1.51 5.15 -32.80 -51.64 12.38 5.28 -59.64 22.60 -27.06 -0.30 -0.49 0.51 14.38 -23.49 8.75 -17.19 -24.98 
46.4366 41.5319 12.4757 -1.92 -5.29 -3.46 0.03 6.61 -19.64 -1.78 22.68 5.47 2.89 -12.15 -0.00 -4.22 -12.55 8.53 4.84 25.53 -7.35 -4.58 -4.34 0.07 4.60 17.64 -1.69 0.00 0.00 0.00 6.17 -0.01 3.91 16.05 -18.70 -15.32 -115.46 -71.42 -132.03 19.29 -15.20 2.88 9.90 1.51 5.21 -31.73 -52.38 14.01 6.06 -59.44 23.02 -27.73 -0.35 -0.51 0.53 15.26 -23.14 9.21 -18.09 -24.64 
46.4940 41.4426 12.4280 -2.10 -5.11 -4.09 -0.10 7.64 -18.75 -2.44 19.88 5.74 4.57 -11.57 -0.06 -4.17 -13.11 8.57 5.11 25.95 -6.82 -4.75 -4.46 0.02 5.33 17.16 -2.57 0.00 0.00 0.00 2.57 -0.01 3.73 17.76 -20.81 -19.38 -112.62 -73.84 -130.12 18.99 -15.65 2.92 10.00 1.50 5.11 -31.04 -51.94 14.57 7.04 -60.73 24.60 -28.14 0.14 -0.40 2.09 16.82 -23.33 8.76 -20.13 -24.13 
46.5922 41.4158 12.3164 -2.11 -4.91 -4.24 -0.35 7.48 -18.41 -2.38 19.58 6.14 5.06 -11.56 -0.06 -4.53 -13.51 8.25 5.47 25.87 -6.47 -4.87 -4.26 0.05 5.64 16.94 -3.46 0.00 0.00 0.00 3.86 -0.03 4.04 15.59 -23.57 -21.45 -106.46 -74.55 -124.53 18.97 -16.29 3.02 8.22 1.05 3.18 -26.85 -50.99 16.01 7.94 -62.59 26.62 -27.64 0.16 -0.39 3.16 17.99 -23.18 8.74 -21.88 -23.46 
46.6587 41.4396 12.2412 -2.08 -4.75 -4.29 -0.37 7.36 -17.45 -1.98 19.40 5.40 5.13 -11.58 -0.03 -4.56 -13.55 8.31 5.24 25.41 -6.36 -4.71 -3.93 0.06 5.63 16.80 -3.92 0.00 0.00 0.00 5.16 -0.04 4.52 14.52 -26.71 -23.03 -100.26 -74.42 -117.38 19.92 -16.73 3.25 5.58 0.58 0.87 -22.59 -50.12 17.30 9.39 -64.16 28.11 -27.72 0.44 -0.32 4.64 18.48 -23.16 8.48 -23.18 -22.72 
46.7216 41.4585 12.1492 -2.07 -4.59 -4.30 -0.22 7.35 -16.57 -1.81 18.88 4.58 5.19 -11.43 -0.00 -4.54 -13.63 8.45 5.04 24.97 -6.37 -4.54 -3.57 0.07 5.56 16.74 -4.28 0.00 0.00 0.00 4.50 -0.05 4.58 15.44 -29.27 -24.76 -99.51 -74.76 -115.76 20.19 -16.77 3.31 3.79 0.33 -0.69 -19.96 -48.41 17.52 11.14 -65.91 30.27 -27.89 1.25 -0.12 6.19 16.97 -23.36 7.21 -23.30 -22.19 
46.8357 41.4906 12.0064 -2.01 -4.49 -4.31 -0.36 7.00 -16.10 -1.72 18.92 4.25 5.29 -11.57 0.04 -4.76 -13.65 8.52 4.99 24.32 -6.35 -4.39 -3.03 0.10 5.38 16.70 -4.32 0.00 0.00 0.00 6.45 -0.05 5.43 13.48 -32.22 -27.23 -95.38 -74.49 -110.88 21.61 -17.04 3.60 1.85 0.13 -2.17 -17.63 -45.73 17.74 13.99 -67.85 33.62 -28.02 1.92 0.05 4.49 16.86 -20.52 8.84 -23.75 -19.92 
47.0255 41.5094 11.7774 -1.99 -4.47 -4.38 -0.64 6.62 -15.57 -1.45 19.06 3.98 5.30 -11.76 0.07 -5.04 -13.69 8.76 4.96 23.56 -6.41 -4.11 -2.29 0.14 5.13 16.80 -4.17 0.00 0.00 0.00 7.04 -0.06 5.94 12.40 -34.67 -28.32 -96.76 -74.09 -112.07 21.07 -16.45 3.39 -0.23 0.00 -3.45 -15.58 -42.28 16.72 17.11 -69.97 37.15 -27.76 2.77 0.26 3.56 15.00 -19.59 9.48 -21.81 -19.42 
47.3524 41.5210 11.3249 -2.08 -4.58 -4.50 -1.14 5.97 -15.01 -0.99 19.39 3.68 5.23 -11.60 0.07 -5.44 -13.77 9.15 5.00 22.30 -6.57 -3.66 -0.88 0.22 4.91 17.15 -3.94 0.00 0.00 0.00 7.19 -0.06 6.36 11.19 -37.28 -30.27 -95.08 -74.18 -110.11 20.94 -16.25 3.33 -0.19 0.01 -3.44 -16.78 -38.30 13.38 19.77 -71.71 39.76 -27.27 3.53 0.44 3.38 13.53 -18.81 9.46 -20.66 -18.72 
